# xmcd CD database file
#
# Track frame offsets:
#	150
#	18939
#	39079
#	58449
#	78348
#	100369
#	124980
#	142152
#	164074
#	179418
#	198036
#	219489
#	240604
#	263170
#	281988
#
# Disc length: 4009 seconds
#
# Revision: 0
# Processed by: cddbd v1.5.2PL0 Copyright (c) Steve Scherf et al.
# Submitted via: CDex 1.70beta2
#
DISCID=e20fa70f
DTITLE=Various Artist - nu cafe Argentina
DYEAR=2007
DGENRE=New Age
TTITLE0=2 2 Tango - Fatal Frizzle
TTITLE1=Prelude - Cross Blend
TTITLE2=Lie Low - Vab
TTITLE3=Blacklite - Cross Blend
TTITLE4=Web - Cannister Six
TTITLE5=Gravity - Cross Blend
TTITLE6=Orange Eleven - Pete Vicary
TTITLE7=Suspicious Alibi - Cross Blend
TTITLE8=Caress the Sand - Vab
TTITLE9=Tango de Ayer - Resplandor Norteno
TTITLE10=Chill out Time - D.J. Alfredo
TTITLE11=Relativity - Cannister Six
TTITLE12=Love Dream - Essence
TTITLE13=El Dorado - Cross Blend
TTITLE14=Love Attack - Fatal Frizzle
EXTD=YEAR: 2007
EXTT0=
EXTT1=
EXTT2=
EXTT3=
EXTT4=
EXTT5=
EXTT6=
EXTT7=
EXTT8=
EXTT9=
EXTT10=
EXTT11=
EXTT12=
EXTT13=
EXTT14=
PLAYORDER=
